<svg xmlns="http://www.w3.org/2000/symbol" fill="none" xmlns:xlink="http://www.w3.org/1999/xlink">
  <symbol viewBox="0 0 13 12" xmlns="http://www.w3.org/2000/svg" xmlns:xlink="http://www.w3.org/1999/xlink" fill="none"
    id="plus">
    <path d="M6.60547 1V11" stroke-linecap="round" stroke-linejoin="round" />
    <path d="M1.44629 6H11.7651" stroke-linecap="round" stroke-linejoin="round" />
  </symbol>

  <symbol viewBox="0 0 46 46" xmlns="http://www.w3.org/2000/svg" xmlns:xlink="http://www.w3.org/1999/xlink" fill="none"
    id="audio">
    <path
      d="M21.083 13.7445C21.083 12.0675 19.1431 11.1351 17.8336 12.1828L12.0475 16.8117C11.6929 17.0954 11.2523 17.2499 10.7981 17.2499H5.83301C4.72844 17.2499 3.83301 18.1453 3.83301 19.2499V26.7499C3.83301 27.8545 4.72844 28.7499 5.83301 28.7499H10.7981C11.2523 28.7499 11.6929 28.9045 12.0475 29.1882L17.8336 33.8171C19.1431 34.8647 21.083 33.9323 21.083 32.2553V13.7445Z"
      stroke-linecap="round" stroke-linejoin="round" />
    <path
      d="M36.551 9.44873C40.1442 13.043 42.1627 17.9172 42.1627 22.9996C42.1627 28.0819 40.1442 32.9561 36.551 36.5504M29.7852 16.2146C31.5818 18.0117 32.591 20.4488 32.591 22.99C32.591 25.5311 31.5818 27.9683 29.7852 29.7654"
      stroke-linecap="round" stroke-linejoin="round" />
  </symbol>

  <symbol viewBox="0 0 46 46" xmlns="http://www.w3.org/2000/svg" xmlns:xlink="http://www.w3.org/1999/xlink" fill="none"
    id="pause">
    <path
      d="M21.083 13.7445C21.083 12.0675 19.1431 11.1351 17.8336 12.1828L12.0475 16.8117C11.6929 17.0954 11.2523 17.2499 10.7981 17.2499H5.83301C4.72844 17.2499 3.83301 18.1453 3.83301 19.2499V26.7499C3.83301 27.8545 4.72844 28.7499 5.83301 28.7499H10.7981C11.2523 28.7499 11.6929 28.9045 12.0475 29.1882L17.8336 33.8171C19.1431 34.8647 21.083 33.9323 21.083 32.2553V13.7445Z"
      stroke-linecap="round" stroke-linejoin="round" />
    <path d="M44.083 17.25L32.583 28.75" stroke-linecap="round" stroke-linejoin="round" />
    <path d="M32.583 17.25L44.083 28.75" stroke-linecap="round" stroke-linejoin="round" />
  </symbol>

  <symbol viewBox="0 0 24 24" xmlns="http://www.w3.org/2000/svg" xmlns:xlink="http://www.w3.org/1999/xlink" fill="none"
    id="delete">
    <path d="M3 6H5H21" stroke-linecap="round" stroke-linejoin="round" />
    <path
      d="M19 6V20C19 20.5304 18.7893 21.0391 18.4142 21.4142C18.0391 21.7893 17.5304 22 17 22H7C6.46957 22 5.96086 21.7893 5.58579 21.4142C5.21071 21.0391 5 20.5304 5 20V6M8 6V4C8 3.46957 8.21071 2.96086 8.58579 2.58579C8.96086 2.21071 9.46957 2 10 2H14C14.5304 2 15.0391 2.21071 15.4142 2.58579C15.7893 2.96086 16 3.46957 16 4V6"
      stroke-linecap="round" stroke-linejoin="round" />
  </symbol>

  <symbol viewBox="0 0 32 32" xmlns="http://www.w3.org/2000/svg" xmlns:xlink="http://www.w3.org/1999/xlink" fill="none"
    id="completed">
    <path fill-rule="evenodd" clip-rule="evenodd"
      d="M16 32C24.8366 32 32 24.8366 32 16C32 7.16344 24.8366 0 16 0C7.16344 0 0 7.16344 0 16C0 24.8366 7.16344 32 16 32ZM23.887 12.8808C24.3734 12.3909 24.3707 11.5995 23.8808 11.113C23.3909 10.6266 22.5995 10.6293 22.113 11.1192L14.0625 19.226L10.887 16.0283C10.4005 15.5384 9.60905 15.5357 9.1192 16.0221C8.62935 16.5086 8.62659 17.3 9.11304 17.7899L13.1755 21.8808C13.4102 22.1171 13.7295 22.25 14.0625 22.25C14.3955 22.25 14.7148 22.1171 14.9495 21.8808L23.887 12.8808Z"
      fill="#01CC8F" />
  </symbol>

  <symbol viewBox="0 0 14 8" xmlns="http://www.w3.org/2000/svg" xmlns:xlink="http://www.w3.org/1999/xlink" fill="none"
    id="arrow">
    <path d="M13 6.66602L7 1.33268L1 6.66602" stroke-linecap="round" stroke-linejoin="round" />
  </symbol>

  <symbol viewBox="0 0 18 18" xmlns="http://www.w3.org/2000/svg" xmlns:xlink="http://www.w3.org/1999/xlink" fill="none"
    id="close">
    <path d="M17 1L1 17" stroke-width="2" stroke-linecap="round" stroke-linejoin="round" />
    <path d="M1 1L17 17" stroke-width="2" stroke-linecap="round" stroke-linejoin="round" />
  </symbol>

  <symbol viewBox="0 0 14 14" xmlns="http://www.w3.org/2000/svg" xmlns:xlink="http://www.w3.org/1999/xlink" fill="none"
    id="back">
    <path d="M12 7H2" stroke-width="1" stroke-linecap="round" stroke-linejoin="round" />
    <path d="M6.14815 11L2 7L6.14815 3" stroke-width="1" stroke-linecap="round" stroke-linejoin="round" />
  </symbol>

  <symbol viewBox="0 0 18 18" xmlns="http://www.w3.org/2000/svg" xmlns:xlink="http://www.w3.org/1999/xlink" fill="none"
    id="setting">
    <path
      d="M7.74375 3.23775C8.06325 1.92075 9.93675 1.92075 10.2563 3.23775C10.3042 3.4356 10.3982 3.61933 10.5305 3.774C10.6629 3.92867 10.8299 4.04989 11.018 4.12781C11.2061 4.20573 11.4099 4.23814 11.6128 4.2224C11.8158 4.20667 12.0122 4.14323 12.186 4.03725C13.3432 3.33225 14.6685 4.65675 13.9635 5.81475C13.8577 5.98849 13.7943 6.18475 13.7786 6.38758C13.7629 6.59041 13.7953 6.79408 13.8731 6.98203C13.951 7.16999 14.0721 7.33693 14.2265 7.46929C14.381 7.60164 14.5646 7.69568 14.7623 7.74375C16.0793 8.06325 16.0793 9.93675 14.7623 10.2563C14.5644 10.3042 14.3807 10.3982 14.226 10.5305C14.0713 10.6629 13.9501 10.8299 13.8722 11.018C13.7943 11.2061 13.7619 11.4099 13.7776 11.6128C13.7933 11.8158 13.8568 12.0122 13.9628 12.186C14.6678 13.3432 13.3432 14.6685 12.1852 13.9635C12.0115 13.8577 11.8152 13.7943 11.6124 13.7786C11.4096 13.7629 11.2059 13.7953 11.018 13.8731C10.83 13.951 10.6631 14.0721 10.5307 14.2265C10.3984 14.381 10.3043 14.5646 10.2563 14.7623C9.93675 16.0793 8.06325 16.0793 7.74375 14.7623C7.69581 14.5644 7.60183 14.3807 7.46947 14.226C7.3371 14.0713 7.17008 13.9501 6.98201 13.8722C6.79394 13.7943 6.59013 13.7619 6.38716 13.7776C6.1842 13.7933 5.98781 13.8568 5.814 13.9628C4.65675 14.6678 3.3315 13.3432 4.0365 12.1852C4.14233 12.0115 4.20566 11.8152 4.22136 11.6124C4.23706 11.4096 4.20468 11.2059 4.12685 11.018C4.04903 10.83 3.92795 10.6631 3.77345 10.5307C3.61896 10.3984 3.43542 10.3043 3.23775 10.2563C1.92075 9.93675 1.92075 8.06325 3.23775 7.74375C3.4356 7.69581 3.61933 7.60183 3.774 7.46947C3.92867 7.3371 4.04989 7.17008 4.12781 6.98201C4.20573 6.79394 4.23814 6.59013 4.2224 6.38716C4.20667 6.1842 4.14323 5.98781 4.03725 5.814C3.33225 4.65675 4.65675 3.3315 5.81475 4.0365C6.56475 4.4925 7.53675 4.089 7.74375 3.23775Z"
      stroke-width="1.3" stroke-linecap="round" stroke-linejoin="round" />
    <path
      d="M9 11.25C10.2426 11.25 11.25 10.2426 11.25 9C11.25 7.75736 10.2426 6.75 9 6.75C7.75736 6.75 6.75 7.75736 6.75 9C6.75 10.2426 7.75736 11.25 9 11.25Z"
      stroke-width="1.3" stroke-linecap="round" stroke-linejoin="round" />
  </symbol>

  <symbol viewBox="0 0 27 27" xmlns="http://www.w3.org/2000/svg" xmlns:xlink="http://www.w3.org/1999/xlink" fill="none"
    id="addModal">
    <rect width="27" height="27" rx="6.02319" fill="white" />
    <path d="M13.501 7V20" stroke="#4D5E7A" stroke-width="1.8" stroke-linecap="round" stroke-linejoin="round" />
    <path d="M7 13.5H20" stroke="#4D5E7A" stroke-width="1.8" stroke-linecap="round" stroke-linejoin="round" />
  </symbol>
</svg>